<svg id="Слой_1" data-name="Слой 1" xmlns="http://www.w3.org/2000/svg" viewBox="0 0 73.23 59.16"><path d="M267.28,391.29c0-4.67.32-9.37-.08-14-.44-5.09,2.54-8.29,6.48-8.08,8.45.45,15.91-2.8,23.77-4.52,5.61-1.22,10.74,0,16,1.89a40,40,0,0,0,11.81,2.06c8.93.31,12.07,3.24,12.08,12.21,0,7.34,0,14.69,0,22-.05,7.65-3.43,11.1-11,10.94a20.69,20.69,0,0,0-11.6,2.79c-8.31,4.87-17.37,5.11-25.58,0-4.52-2.78-8.92-2.73-13.63-2.78-5.37-.06-8.21-2.79-8.23-8C267.26,401,267.28,396.13,267.28,391.29Z" transform="translate(-265.65 -362.69)" style="fill:#3e3847"/><path d="M267.28,391.29c0-4.67.32-9.37-.08-14-.44-5.09,2.54-8.29,6.48-8.08,8.45.45,15.91-2.8,23.77-4.52,5.61-1.22,10.74,0,16,1.89a40,40,0,0,0,11.81,2.06c8.93.31,12.07,3.24,12.08,12.21,0,7.34,0,14.69,0,22-.05,7.65-3.43,11.1-11,10.94a20.69,20.69,0,0,0-11.6,2.79c-8.31,4.87-17.37,5.11-25.58,0-4.52-2.78-8.92-2.73-13.63-2.78-5.37-.06-8.21-2.79-8.23-8C267.26,401,267.28,396.13,267.28,391.29Z" transform="translate(-265.65 -362.69)" style="fill:none;stroke:#fff;stroke-miterlimit:10;stroke-width:3px"/></svg>